<?xml version="1.0" standalone="no"?>
<!DOCTYPE svg PUBLIC "-//W3C//DTD SVG 20010904//EN"
 "http://www.w3.org/TR/2001/REC-SVG-20010904/DTD/svg10.dtd">
<svg version="1.0" xmlns="http://www.w3.org/2000/svg"
 width="440.000000pt" height="440.000000pt" viewBox="0 0 440.000000 440.000000"
 preserveAspectRatio="xMidYMid meet">
<metadata>
Created by potrace 1.11, written by Peter Selinger 2001-2013
</metadata>
<g transform="translate(0.000000,440.000000) scale(0.100000,-0.100000)"
fill="#000000" stroke="none">
<path d="M2039 4366 c-3 -3 -34 -8 -69 -10 -36 -3 -80 -10 -99 -15 -19 -6 -37
-8 -42 -6 -4 3 -19 1 -34 -5 -14 -5 -44 -12 -65 -15 -21 -2 -57 -12 -80 -21
-22 -9 -43 -14 -46 -11 -4 3 -30 -5 -59 -18 -30 -13 -56 -21 -58 -18 -3 2 -28
-7 -56 -21 -28 -14 -55 -26 -60 -26 -10 0 -98 -42 -221 -105 -30 -15 -71 -39
-90 -54 -19 -14 -38 -26 -41 -26 -3 0 -32 -19 -63 -42 -31 -24 -61 -43 -66
-43 -5 0 -13 -6 -17 -13 -4 -8 -28 -29 -53 -48 -50 -38 -238 -224 -285 -283
-16 -21 -38 -47 -48 -59 -11 -12 -30 -41 -44 -64 -14 -24 -29 -43 -34 -43 -5
0 -21 -24 -35 -52 -15 -29 -30 -55 -35 -58 -4 -3 -16 -23 -25 -45 -9 -22 -24
-50 -34 -63 -11 -13 -26 -45 -35 -73 -9 -27 -20 -49 -25 -49 -4 0 -13 -21 -20
-47 -7 -27 -18 -55 -25 -63 -7 -8 -17 -33 -23 -55 -5 -22 -15 -53 -21 -70 -21
-60 -42 -137 -39 -141 2 -2 314 -30 694 -63 379 -33 706 -62 726 -65 35 -4 39
-1 62 38 59 101 248 254 355 286 24 8 45 19 47 24 1 6 14 142 28 301 14 160
42 478 62 708 20 230 35 419 33 421 -8 8 -55 17 -60 12z"/>
<path d="M2660 4303 c0 -7 -24 -290 -54 -630 -30 -340 -58 -655 -62 -700 -8
-95 -6 -98 69 -142 29 -16 79 -56 113 -88 61 -58 162 -198 169 -233 7 -35 26
-60 45 -60 10 0 326 -27 702 -60 376 -33 696 -60 711 -60 26 0 28 2 22 28 -3
16 -8 53 -10 83 -3 30 -9 68 -14 86 -5 17 -7 34 -4 36 2 3 -2 28 -11 55 -8 28
-12 52 -10 55 2 2 -3 24 -12 48 -9 24 -18 57 -20 72 -2 16 -12 48 -23 72 -11
24 -17 46 -14 48 2 3 -7 28 -21 56 -15 28 -24 51 -21 51 3 0 -8 27 -25 60 -17
33 -28 60 -25 60 3 0 -9 24 -28 53 -18 28 -41 69 -50 89 -10 20 -29 51 -43 68
-14 16 -22 30 -18 30 4 0 -1 10 -12 23 -11 12 -29 35 -40 51 -10 16 -26 39
-34 51 -56 84 -231 263 -381 390 -14 12 -47 36 -74 55 -28 19 -52 38 -53 42
-2 5 -29 22 -60 39 -105 56 -167 91 -172 99 -3 3 -29 15 -57 25 -29 11 -53 22
-53 26 0 3 -21 12 -47 19 -27 7 -55 19 -63 25 -8 7 -39 18 -68 25 -28 6 -54
16 -57 20 -3 4 -26 11 -52 15 -27 4 -52 10 -58 15 -18 14 -85 17 -85 3z"/>
<path d="M35 2073 c8 -118 14 -177 24 -210 5 -17 7 -34 4 -37 -3 -2 0 -20 6
-38 6 -18 13 -50 15 -70 3 -21 10 -46 15 -57 6 -10 13 -37 16 -60 3 -23 14
-59 25 -80 10 -21 17 -41 14 -44 -3 -3 4 -24 16 -47 12 -23 23 -51 26 -63 2
-11 15 -42 29 -68 14 -27 24 -51 23 -53 -2 -2 11 -25 28 -52 17 -27 35 -59 39
-72 3 -12 22 -42 40 -66 18 -24 32 -46 29 -48 -2 -3 5 -13 16 -23 11 -10 20
-23 20 -30 0 -6 11 -22 25 -35 14 -13 25 -29 25 -36 0 -7 3 -14 8 -16 4 -2 25
-25 47 -53 82 -102 297 -307 383 -364 21 -13 48 -34 62 -46 14 -13 45 -33 70
-45 25 -13 47 -26 50 -30 3 -4 23 -17 45 -28 22 -11 76 -39 120 -61 44 -23 98
-47 120 -53 22 -7 43 -16 46 -20 3 -5 28 -15 55 -23 27 -7 63 -18 79 -24 111
-39 175 -50 175 -31 0 12 39 458 85 973 19 213 35 404 35 425 0 35 -4 40 -55
71 -78 48 -167 136 -226 226 -49 76 -103 201 -93 217 3 4 -1 10 -8 13 -13 5
-1372 125 -1414 125 -22 0 -23 -2 -19 -67z"/>
<path d="M2889 1863 c-6 -15 -14 -30 -18 -33 -4 -3 -21 -28 -38 -55 -68 -113
-226 -241 -350 -285 -31 -11 -60 -23 -64 -27 -7 -7 -129 -1350 -129 -1414 0
-24 2 -25 53 -23 89 4 161 13 194 23 17 5 34 7 37 4 2 -3 20 0 38 6 18 6 49
13 69 15 20 3 53 12 74 20 20 9 41 13 46 10 5 -3 30 4 55 15 26 12 53 21 61
21 7 0 36 11 63 25 28 14 50 23 50 20 0 -3 27 8 60 25 33 17 60 28 60 25 0 -2
25 11 55 30 30 20 55 33 55 30 0 -6 101 57 194 123 26 17 50 32 54 32 4 1 25
19 47 40 22 22 44 40 49 40 5 0 35 26 66 58 32 31 64 62 71 68 19 16 121 131
150 169 13 17 26 32 29 35 4 3 22 28 40 55 19 28 38 52 42 53 5 2 20 27 35 55
14 29 29 54 32 57 12 9 42 60 35 60 -3 0 5 15 18 33 14 17 33 56 42 85 10 28
21 52 26 52 4 0 11 12 15 28 3 15 15 45 25 67 31 67 73 206 90 297 5 27 12 52
15 58 3 5 -3 10 -13 10 -11 0 -327 27 -703 60 -376 33 -692 60 -702 60 -10 0
-22 -12 -28 -27z"/>
</g>
</svg>
